# xmcd
#
# Track frame offsets: 
#        150
#        15601
#        40187
#        60387
#        80735
#        92162
#        119190
#        130463
#        152113
#        168039
#        183309
#        199007
#        209968
#        237263
#        253142
#        274100
#        299092
#
# Disc length: 4298 seconds
#
# Revision: 0
# Processed by: cddbd v1.5.2PL0 Copyright (c) Steve Scherf et al.
# Submitted via: ExactAudioCopy v0.99pb4
#
DISCID=0610c811
DTITLE=Roy Buchanan - That's what I am here for - Rescue me
DYEAR=1973
DGENRE=Blues
TTITLE0=My Baby sais she's gonna leave me
TTITLE1=Hey Joe
TTITLE2=Home is where I lost her
TTITLE3=Rodney's Song
TTITLE4=That's what I am here for
TTITLE5=Roy's Bluz
TTITLE6=Voices
TTITLE7=Please don't turn me away
TTITLE8=Nephesh
TTITLE9=Rescue me
TTITLE10=I'm a ram
TTITLE11=In the beginning
TTITLE12=CC Rider
TTITLE13=Country Preacher
TTITLE14=You're killing my love
TTITLE15=She can't say no
TTITLE16=Wayfaring pilgrim
EXTD=
EXTT0=
EXTT1=
EXTT2=
EXTT3=
EXTT4=
EXTT5=
EXTT6=
EXTT7=
EXTT8=
EXTT9=
EXTT10=
EXTT11=
EXTT12=
EXTT13=
EXTT14=
EXTT15=
EXTT16=
PLAYORDER=
